<svg version="1.2" xmlns="http://www.w3.org/2000/svg" viewBox="0 0 1200 312" width="1200" height="312">
	<title>logo pagina web</title>
	<style>
		tspan { white-space:pre } 
		.s0 { fill: #000000 } 
		.s1 { fill: #2595db } 
		.s2 { fill: #2d53be } 
		.s3 { fill: #242a9b } 
		.t4 { font-size: 102px;fill: #ffffff;font-weight: 200;font-family: "DejaVuSans-ExtraLight", "DejaVu Sans" } 
		.t5 { font-size: 102px;fill: #ffffff;font-weight: 700;font-family: "DejaVuSans-Bold", "DejaVu Sans" } 
		.t6 { font-size: 36px;fill: #ffffff;font-weight: 400;font-family: "DejaVuSans", "DejaVu Sans" } 
		.s7 { fill: #ffffff } 
	</style>
	<path id="Forma 1" class="s0" d="m-150-161h1642v709h-1642z"/>
	<path id="rombo B" class="s1" d="m694.3 114.7l-64.3 41.7-68.3-34.8-4-76.6 64.4-41.7 68.2 34.9z"/>
	<path id="rombo A" class="s2" d="m585.7 265.4l-76.3 43.8-76.1-44 0.2-88 76.2-43.8 76.1 44z"/>
	<path id="rombo C" class="s3" d="m749 246.2l-55.7 31.1-54.7-32.8 0.9-63.7 55.7-31.1 54.8 32.7z"/>
	<text id="PabloInzunza" style="transform: matrix(1,0,0,1,241,164)" >
		<tspan x="0" y="0" class="t4">P</tspan><tspan  y="0" class="t4">a</tspan><tspan  y="0" class="t4">b</tspan><tspan  y="0" class="t4">l</tspan><tspan  y="0" class="t4">o</tspan><tspan  y="0" class="t5">I</tspan><tspan  y="0" class="t5">n</tspan><tspan  y="0" class="t5">z</tspan><tspan  y="0" class="t5">u</tspan><tspan  y="0" class="t5">n</tspan><tspan  y="0" class="t5">z</tspan><tspan  y="0" class="t5">a</tspan><tspan  y="0" class="t5">
</tspan>
	</text>
	<text id="WEB DEVELOPER" style="transform: matrix(1,0,0,1,444,216)" >
		<tspan x="0" y="0" class="t6">W</tspan><tspan  y="0" class="t6">E</tspan><tspan  y="0" class="t6">B</tspan><tspan  y="0" class="t6"> </tspan><tspan  y="0" class="t6">D</tspan><tspan  y="0" class="t6">E</tspan><tspan  y="0" class="t6">V</tspan><tspan  y="0" class="t6">E</tspan><tspan  y="0" class="t6">L</tspan><tspan  y="0" class="t6">O</tspan><tspan  y="0" class="t6">P</tspan><tspan  y="0" class="t6">E</tspan><tspan  y="0" class="t6">R</tspan><tspan  y="0" class="t6">
</tspan>
	</text>
	<path id="linea izq" class="s7" d="m270 205.4v-5h146v5z"/>
	<path id="linea der" class="s7" d="m776 205.4v-5h146v5z"/>
</svg>